<svg xmlns="http://www.w3.org/2000/svg" xmlns:xlink="http://www.w3.org/1999/xlink" style="isolation:isolate;"
  viewBox="0 0 64 64" x="0px" y="0px">
  <defs>
    <clipPath id="a">
      <rect width="64" height="64" />
    </clipPath>
  </defs>
  <g clip-path="url(#a)">
    <path
      d=" M 36.53 36.47 C 37.08 36.1 37.76 35.97 38.41 36.1 C 39.06 36.23 39.63 36.61 40 37.16 C 40.37 37.71 40.51 38.39 40.38 39.04 C 40.25 39.69 39.87 40.26 39.32 40.63 C 37.15 42.08 34.6 42.85 32 42.85 C 28.48 42.84 25.11 41.45 22.63 38.96 C 20.14 36.48 18.75 33.1 18.75 29.59 L 18.75 21.87 C 18.75 21.21 19.01 20.57 19.48 20.1 C 19.95 19.64 20.58 19.37 21.25 19.37 C 21.91 19.37 22.55 19.64 23.01 20.1 C 23.48 20.57 23.75 21.21 23.75 21.87 L 23.75 29.59 C 23.75 31.78 24.62 33.88 26.16 35.43 C 27.71 36.98 29.81 37.85 32 37.85 C 33.62 37.85 35.19 37.37 36.53 36.47 Z "
      fill="#777" />
    <path
      d=" M 23.92 13.72 C 23.8 14.38 23.43 14.95 22.88 15.33 C 22.34 15.71 21.67 15.85 21.01 15.73 C 20.36 15.62 19.78 15.24 19.41 14.7 C 19.03 14.15 18.88 13.48 19 12.83 C 19.56 9.78 21.16 7.03 23.54 5.06 C 25.91 3.08 28.91 2 32 2 C 35.52 2 38.89 3.4 41.37 5.88 C 43.86 8.37 45.25 11.74 45.25 15.25 L 45.25 29.59 C 45.26 31.35 44.9 33.1 44.19 34.72 C 43.92 35.32 43.42 35.8 42.8 36.04 C 42.19 36.28 41.5 36.27 40.89 36 C 40.28 35.73 39.81 35.23 39.57 34.62 C 39.33 34 39.34 33.31 39.61 32.7 C 40.04 31.73 40.26 30.67 40.25 29.61 C 40.25 29.6 40.25 29.6 40.25 29.59 L 40.25 15.25 C 40.25 13.07 39.38 10.96 37.84 9.42 C 36.29 7.87 34.19 7 32 7 C 30.08 7 28.22 7.67 26.74 8.9 C 25.26 10.13 24.27 11.83 23.92 13.72 Z "
      fill="#777" />
    <path
      d=" M 46.08 35.75 C 46.35 35.15 46.85 34.67 47.47 34.43 C 48.08 34.19 48.77 34.21 49.38 34.47 C 49.98 34.74 50.46 35.24 50.7 35.86 C 50.94 36.47 50.92 37.16 50.66 37.77 C 50.22 38.75 49.7 39.69 49.1 40.57 C 48.72 41.12 48.14 41.49 47.49 41.62 C 46.84 41.74 46.17 41.59 45.62 41.22 C 45.07 40.85 44.7 40.27 44.58 39.62 C 44.45 38.96 44.6 38.29 44.97 37.74 C 45.4 37.12 45.77 36.45 46.08 35.75 Z "
      fill="#777" />
    <path
      d=" M 35.492 49.592 C 38.134 49.264 41.602 47.842 44.52 45.58 C 45.04 45.17 45.38 44.57 45.46 43.91 C 45.54 43.26 45.36 42.59 44.95 42.07 C 44.55 41.55 43.95 41.21 43.29 41.12 C 42.63 41.04 41.97 41.22 41.44 41.63 C 38.76 43.72 35.46 44.86 32.06 44.87 C 32.06 44.87 32.06 44.87 32.06 44.87 L 32 44.87 L 31.94 44.87 C 28.97 44.87 26.07 44.01 23.58 42.39 C 21.09 40.77 19.12 38.46 17.92 35.75 C 17.65 35.14 17.15 34.67 16.53 34.43 C 15.91 34.19 15.22 34.21 14.62 34.48 C 14.01 34.74 13.54 35.24 13.3 35.86 C 13.06 36.48 13.08 37.17 13.35 37.77 C 14.94 41.37 17.55 44.43 20.85 46.58 C 23.462 48.282 26.425 49.351 28.507 49.602 C 29.055 49.669 29.5 50.171 29.5 50.722 L 29.5 59.5 C 29.5 60.16 29.76 60.8 30.23 61.27 C 30.7 61.74 31.34 62 32 62 C 32.66 62 33.3 61.74 33.77 61.27 C 34.24 60.8 34.5 60.16 34.5 59.5 L 34.5 50.715 C 34.5 50.163 34.945 49.66 35.492 49.592 Z "
      fill="#777" />
    <path
      d=" M 61.27 57.73 C 61.74 58.2 62 58.84 62 59.5 C 62 60.16 61.74 60.8 61.27 61.27 C 60.8 61.74 60.16 62 59.5 62 C 58.84 62 58.2 61.74 57.73 61.27 L 2.73 6.27 C 2.26 5.8 2 5.16 2 4.5 C 2 3.84 2.26 3.2 2.73 2.73 C 3.2 2.26 3.84 2 4.5 2 C 5.16 2 5.8 2.26 6.27 2.73 L 61.27 57.73 Z "
      fill="#777" />
  </g>
</svg>
