<svg xmlns="http://www.w3.org/2000/svg" xmlns:xlink="http://www.w3.org/1999/xlink" style="isolation:isolate;"
  viewBox="0 0 64 64" x="0px" y="0px">
  <defs>
    <clipPath id="a">
      <rect width="64" height="64" />
    </clipPath>
  </defs>
  <g clip-path="url(#a)">
    <path
      d=" M 32 2 C 35.51 2 38.89 3.4 41.37 5.88 C 43.86 8.37 45.25 11.74 45.25 15.25 L 45.25 29.59 C 45.25 33.11 43.86 36.48 41.37 38.96 C 38.89 41.45 35.51 42.85 32 42.85 C 28.49 42.85 25.11 41.45 22.63 38.96 C 20.14 36.48 18.75 33.11 18.75 29.59 L 18.75 15.25 C 18.75 11.74 20.14 8.37 22.63 5.88 C 25.11 3.4 28.49 2 32 2 Z  M 32 7 C 34.19 7 36.29 7.87 37.84 9.42 C 39.38 10.96 40.25 13.07 40.25 15.25 L 40.25 29.59 C 40.25 31.78 39.38 33.88 37.84 35.43 C 36.29 36.98 34.19 37.85 32 37.85 C 29.81 37.85 27.71 36.98 26.16 35.43 C 24.62 33.88 23.75 31.78 23.75 29.59 L 23.75 15.25 C 23.75 13.07 24.62 10.96 26.16 9.42 C 27.71 7.87 29.81 7 32 7 Z "
      fill-rule="evenodd" fill="#E55656" />
    <path
      d=" M 35.492 49.591 C 37.573 49.333 40.532 48.258 43.15 46.56 C 46.44 44.42 49.05 41.37 50.65 37.78 C 50.92 37.18 50.94 36.49 50.7 35.87 C 50.47 35.25 49.99 34.75 49.39 34.48 C 48.78 34.21 48.1 34.19 47.48 34.43 C 46.86 34.66 46.36 35.13 46.09 35.74 C 44.87 38.45 42.91 40.75 40.42 42.37 C 37.93 43.99 35.03 44.86 32.06 44.87 L 32 44.87 L 31.94 44.87 C 28.97 44.87 26.07 44.01 23.58 42.39 C 21.09 40.77 19.12 38.46 17.92 35.75 C 17.65 35.14 17.15 34.67 16.53 34.43 C 15.91 34.19 15.22 34.21 14.62 34.48 C 14.01 34.74 13.54 35.24 13.3 35.86 C 13.06 36.48 13.08 37.17 13.35 37.77 C 14.94 41.37 17.55 44.43 20.85 46.58 C 23.462 48.282 26.425 49.351 28.507 49.602 C 29.055 49.669 29.5 50.171 29.5 50.722 L 29.5 59.5 C 29.5 60.16 29.76 60.8 30.23 61.27 C 30.7 61.74 31.34 62 32 62 C 32.66 62 33.3 61.74 33.77 61.27 C 34.24 60.8 34.5 60.16 34.5 59.5 L 34.5 50.714 C 34.5 50.162 34.945 49.659 35.492 49.591 Z "
      fill="#E55656" />
  </g>
</svg>
